<svg xmlns="http://www.w3.org/2000/svg" width="22" height="22" viewBox="0 0 22 22">
  <path d="M10.94,2 C6.01062154,2 2,6.01062154 2,10.94 C2,15.8693785 6.01062154,19.88 10.94,19.88 C15.8693785,19.88 19.88,15.8693785 19.88,10.94 C19.88,6.01062154 15.8693785,2 10.94,2 Z M10.94,3.37538462 C15.1252954,3.37538462 18.5046154,6.75470462 18.5046154,10.94 C18.5046154,15.1252954 15.1252954,18.5046154 10.94,18.5046154 C6.75470462,18.5046154 3.37538462,15.1252954 3.37538462,10.94 C3.37538462,6.75470462 6.75470462,3.37538462 10.94,3.37538462 Z M10.94,6.12615385 L8.18923077,8.87692308 L10.2523077,8.87692308 L10.2523077,15.7538462 L11.6276923,15.7538462 L11.6276923,8.87692308 L13.6907692,8.87692308 L10.94,6.12615385 Z"/>
</svg>
