<svg xmlns="http://www.w3.org/2000/svg" width="22" height="22" viewBox="0 0 22 22">
  <path d="M10.94,2 C6.01064286,2 2,6.01064286 2,10.94 C2,15.8693571 6.01064286,19.88 10.94,19.88 C15.8693571,19.88 19.88,15.8693571 19.88,10.94 C19.88,6.01064286 15.8693571,2 10.94,2 Z M10.94,3.37538462 C15.1252527,3.37538462 18.5046154,6.75474794 18.5046154,10.94 C18.5046154,12.8150364 17.8249821,14.5208352 16.6994231,15.8398077 L6.14764423,5.073125 C7.45049863,4.00666484 9.11869025,3.37538462 10.94,3.37538462 Z M5.18057692,6.04019231 L15.7323558,16.806875 C14.4295014,17.8733352 12.7613104,18.5046154 10.94,18.5046154 C6.75474794,18.5046154 3.37538462,15.1252527 3.37538462,10.94 C3.37538462,9.06496429 4.05501786,7.35916484 5.18057692,6.04019231 Z"/>
</svg>
