<?xml version="1.0" encoding="UTF-8"?>
<svg width="22px" height="22px" viewBox="0 0 22 22" version="1.1" xmlns="http://www.w3.org/2000/svg" xmlns:xlink="http://www.w3.org/1999/xlink">
    <title>CE667847-AB2A-4D07-9163-4292A353FCAA</title>
    <g id="Style-Guide" stroke="none" stroke-width="1" fill="none" fill-rule="evenodd">
        <g id="[UI]-Icons" transform="translate(-463.000000, -814.000000)" fill="none" fill-rule="nonzero">
            <g id="box-solid" transform="translate(463.000000, 814.000000)">
                <path d="M5.40704545,3 L5.19178682,3.27921727 L3,6.20205818 L3,18.13 L18.13,18.13 L18.13,6.20205818 L15.9375255,3.27921727 L15.7229545,3 L5.40704545,3 Z M6.09477273,4.37545455 L9.87727273,4.37545455 L9.87727273,5.75090909 L5.06318182,5.75090909 L6.09477273,4.37545455 Z M11.2527273,4.37545455 L15.0352273,4.37545455 L16.0668182,5.75090909 L11.2527273,5.75090909 L11.2527273,4.37545455 Z M4.37545455,7.12636364 L16.7545455,7.12636364 L16.7545455,16.7545455 L4.37545455,16.7545455 L4.37545455,7.12636364 Z M8.37321318,8.50181818 C7.99427545,8.53620455 7.71437045,8.87525409 7.74944455,9.25419182 C7.78451864,9.63244182 8.12288045,9.91234682 8.50181818,9.87727273 L12.6281818,9.87727273 C12.8757636,9.88002364 13.1061523,9.75073091 13.2326941,9.53616 C13.3562445,9.32159843 13.3562445,9.05749248 13.2326941,8.84293091 C13.1061523,8.62836 12.8750759,8.49906727 12.6281818,8.50181818 L8.37252545,8.50181818 L8.37321318,8.50181818 Z" id="Shape"></path>
            </g>
        </g>
    </g>
</svg>