<svg xmlns="http://www.w3.org/2000/svg" width="22" height="22" viewBox="0 0 22 22">
  <path d="M10.94,3 C9.65863599,3 8.60292102,3.87841964 8.29668269,5.06307692 L2,5.06307692 L2,18.8169231 L19.88,18.8169231 L19.88,5.06307692 L13.5833173,5.06307692 C13.2770797,3.87841964 12.221364,3 10.94,3 Z M10.94,4.37538462 C11.4960639,4.37538462 11.9231854,4.6413283 12.1434615,5.06307692 L9.73653846,5.06307692 C9.95681525,4.6413283 10.3839361,4.37538462 10.94,4.37538462 Z M3.37538462,6.43846154 L18.5046154,6.43846154 L18.5046154,12.6276923 L3.37538462,12.6276923 L3.37538462,6.43846154 Z M10.94,10.5646154 C10.5612321,10.5646154 10.2523077,10.8735398 10.2523077,11.2523077 C10.2523077,11.6310755 10.5612321,11.94 10.94,11.94 C11.3187679,11.94 11.6276923,11.6310755 11.6276923,11.2523077 C11.6276923,10.8735398 11.3187679,10.5646154 10.94,10.5646154 Z M3.37538462,14.0030769 L18.5046154,14.0030769 L18.5046154,17.4415385 L3.37538462,17.4415385 L3.37538462,14.0030769 Z"/>
</svg>
