<svg xmlns="http://www.w3.org/2000/svg" width="22" height="22" viewBox="0 0 22 22">
  <path d="M5.75090909,3 L5.75090909,3.68772727 L3,3.68772727 L3,18.8177273 L18.13,18.8177273 L18.13,3.68772727 L15.3790909,3.68772727 L15.3790909,3 L14.0036364,3 L14.0036364,3.68772727 L7.12636364,3.68772727 L7.12636364,3 L5.75090909,3 Z M4.37545455,5.06318182 L5.75090909,5.06318182 L5.75090909,5.75090909 L7.12636364,5.75090909 L7.12636364,5.06318182 L14.0036364,5.06318182 L14.0036364,5.75090909 L15.3790909,5.75090909 L15.3790909,5.06318182 L16.7545455,5.06318182 L16.7545455,6.43863636 L4.37545455,6.43863636 L4.37545455,5.06318182 Z M4.37545455,7.81409091 L16.7545455,7.81409091 L16.7545455,17.4422727 L4.37545455,17.4422727 L4.37545455,7.81409091 Z M8.65225852,9.72683239 L7.66365057,10.7154403 L9.57639205,12.6281818 L7.66365057,14.5409233 L8.65225852,15.5295313 L10.565,13.6167898 L12.4777415,15.5295313 L13.4663494,14.5409233 L11.553608,12.6281818 L13.4663494,10.7154403 L12.4777415,9.72683239 L10.565,11.6395739 L8.65225852,9.72683239 Z"/>
</svg>
