<svg xmlns="http://www.w3.org/2000/svg" width="22" height="22" viewBox="0 0 22 22">
  <path d="M5.75090909,3 L5.75090909,3.68772727 L3,3.68772727 L3,18.8177273 L18.13,18.8177273 L18.13,3.68772727 L15.3790909,3.68772727 L15.3790909,3 L14.0036364,3 L14.0036364,3.68772727 L7.12636364,3.68772727 L7.12636364,3 L5.75090909,3 Z M4.37545455,5.06318182 L5.75090909,5.06318182 L5.75090909,5.75090909 L7.12636364,5.75090909 L7.12636364,5.06318182 L14.0036364,5.06318182 L14.0036364,5.75090909 L15.3790909,5.75090909 L15.3790909,5.06318182 L16.7545455,5.06318182 L16.7545455,6.43863636 L4.37545455,6.43863636 L4.37545455,5.06318182 Z M4.37545455,7.81409091 L16.7545455,7.81409091 L16.7545455,17.4422727 L4.37545455,17.4422727 L4.37545455,7.81409091 Z M8.50181818,9.18954545 L8.50181818,10.565 L9.87727273,10.565 L9.87727273,9.18954545 L8.50181818,9.18954545 Z M11.2527273,9.18954545 L11.2527273,10.565 L12.6281818,10.565 L12.6281818,9.18954545 L11.2527273,9.18954545 Z M14.0036364,9.18954545 L14.0036364,10.565 L15.3790909,10.565 L15.3790909,9.18954545 L14.0036364,9.18954545 Z M10.565,11.2527273 L10.565,14.0036364 L13.3159091,14.0036364 L13.3159091,11.2527273 L10.565,11.2527273 Z M5.75090909,11.9404545 L5.75090909,13.3159091 L7.12636364,13.3159091 L7.12636364,11.9404545 L5.75090909,11.9404545 Z M8.50181818,11.9404545 L8.50181818,13.3159091 L9.87727273,13.3159091 L9.87727273,11.9404545 L8.50181818,11.9404545 Z M14.0036364,11.9404545 L14.0036364,13.3159091 L15.3790909,13.3159091 L15.3790909,11.9404545 L14.0036364,11.9404545 Z M5.75090909,14.6913636 L5.75090909,16.0668182 L7.12636364,16.0668182 L7.12636364,14.6913636 L5.75090909,14.6913636 Z M8.50181818,14.6913636 L8.50181818,16.0668182 L9.87727273,16.0668182 L9.87727273,14.6913636 L8.50181818,14.6913636 Z M11.2527273,14.6913636 L11.2527273,16.0668182 L12.6281818,16.0668182 L12.6281818,14.6913636 L11.2527273,14.6913636 Z"/>
</svg>
