<svg xmlns="http://www.w3.org/2000/svg" width="22" height="22" viewBox="0 0 22 22">
  <path d="M5.75090909,3 L5.75090909,3.68772727 L3,3.68772727 L3,18.8177273 L18.13,18.8177273 L18.13,3.68772727 L15.3790909,3.68772727 L15.3790909,3 L14.0036364,3 L14.0036364,3.68772727 L7.12636364,3.68772727 L7.12636364,3 L5.75090909,3 Z M4.37545455,5.06318182 L5.75090909,5.06318182 L5.75090909,5.75090909 L7.12636364,5.75090909 L7.12636364,5.06318182 L14.0036364,5.06318182 L14.0036364,5.75090909 L15.3790909,5.75090909 L15.3790909,5.06318182 L16.7545455,5.06318182 L16.7545455,6.43863636 L4.37545455,6.43863636 L4.37545455,5.06318182 Z M4.37545455,7.81409091 L16.7545455,7.81409091 L16.7545455,17.4422727 L4.37545455,17.4422727 L4.37545455,7.81409091 Z M13.5093324,9.38296875 L9.87727273,13.0150284 L8.30839489,11.4461506 L7.31978693,12.4347585 L9.38296875,14.4979403 L9.87727273,14.9707528 L10.3715767,14.4979403 L14.4979403,10.3715767 L13.5093324,9.38296875 Z"/>
</svg>
