<svg xmlns="http://www.w3.org/2000/svg" width="22" height="22" viewBox="0 0 22 22">
  <path d="M11.25,3 C6.70068394,3 3,6.70068394 3,11.25 C3,15.7993167 6.70068394,19.5 11.25,19.5 C15.7993167,19.5 19.5,15.7993167 19.5,11.25 C19.5,6.70068394 15.7993167,3 11.25,3 Z M11.25,4.375 C15.0554198,4.375 18.125,7.44458025 18.125,11.25 C18.125,15.0554198 15.0554198,18.125 11.25,18.125 C7.44458025,18.125 4.375,15.0554198 4.375,11.25 C4.375,7.44458025 7.44458025,4.375 11.25,4.375 Z M10.5625,5.75 L10.5625,11.9375 L15.375,11.9375 L15.375,10.5625 L11.9375,10.5625 L11.9375,5.75 L10.5625,5.75 Z"/>
</svg>
