<svg xmlns="http://www.w3.org/2000/svg" width="22" height="22" viewBox="0 0 22 22">
  <path d="M8.76697219,2 L8.65904709,2.55887326 L8.25071903,4.59913875 C7.60651171,4.85759848 7.00545168,5.21271764 6.46823641,5.6522677 L4.47059102,4.96484671 L3.93302781,4.79299147 L3.65393489,5.28655973 L2.27909292,7.64991308 L2,8.14416877 L2.40832807,8.5085019 L3.95502528,9.86272124 C3.89728192,10.2133059 3.82579014,10.5652655 3.82579014,10.9364728 C3.82579014,11.3076802 3.89796934,11.6582649 3.95502528,12.0109118 L2.40832807,13.3637563 L2,13.7294643 L2.27909292,14.2230326 L3.65393489,16.5863859 L3.93302781,17.0799542 L4.47059102,16.9080989 L6.46823641,16.2206779 C7.00566202,16.6602879 7.60695785,17.0154095 8.25140645,17.2738069 L8.65904709,19.3140724 L8.76628477,19.8729456 L12.6337152,19.8729456 L12.7409529,19.3140724 L13.1485936,17.2738069 C13.7930422,17.0154095 14.394338,16.6602879 14.9317636,16.2206779 L16.9300964,16.9080989 L17.4662848,17.0799542 L17.7460651,16.5863859 L19.1209071,14.2230326 L19.4,13.7294643 L18.9923594,13.3637563 L17.4456621,12.0109118 C17.5020307,11.6582649 17.5742099,11.3063053 17.5742099,10.9364728 C17.5742099,10.5652655 17.5020307,10.2146808 17.4449747,9.86203382 L18.9916719,8.50918932 L19.4,8.14416877 L19.1209071,7.64922566 L17.7460651,5.28655973 L17.4669722,4.79299147 L16.929409,4.96484671 L14.9317636,5.6522677 C14.3945483,5.21271764 13.7934883,4.85759848 13.149281,4.59913875 L12.7409529,2.55887326 L12.6330278,2 L8.76697219,2 Z M9.88334387,3.37484197 L11.5166561,3.37484197 L11.8603666,5.15801201 L11.9462942,5.56565265 L12.3326248,5.6948878 C13.1072711,5.93753766 13.8187477,6.3483209 14.4161979,6.89787453 L14.7172882,7.17696745 L15.1036188,7.04841972 L16.8441688,6.44692636 L17.6601375,7.84307838 L16.2852955,9.06737516 L15.9628951,9.32515803 L16.0708202,9.73348609 C16.1588101,10.1253161 16.1993679,10.5253951 16.1993679,10.9364728 C16.1993679,11.3475506 16.1588101,11.7476296 16.0701327,12.1394595 L15.9842051,12.5477876 L16.2852955,12.8055705 L17.6601375,14.0298673 L16.8434814,15.4260193 L15.1043063,14.8245259 L14.7172882,14.6959782 L14.4161979,14.9750711 C13.8187477,15.5246247 13.1072711,15.935408 12.3326248,16.1780578 L11.9456068,16.307293 L11.8596792,16.7149336 L11.5159687,18.4981037 L9.88334387,18.4981037 L9.53963338,16.7149336 L9.45439317,16.307293 L9.06737516,16.1780578 C8.29272886,15.935408 7.58125228,15.5246247 6.98380215,14.9750711 L6.68271176,14.6959782 L6.29638116,14.8245259 L4.55651865,15.4260193 L3.73986252,14.0298673 L5.11470449,12.8055705 L5.43710493,12.5477876 L5.32986726,12.1394595 C5.24211996,11.7445286 5.19877269,11.3410301 5.20063211,10.9364728 C5.20063211,10.5253951 5.24118995,10.1253161 5.32986726,9.73348609 L5.43710493,9.32515803 L5.11470449,9.06737516 L3.73986252,7.84307838 L4.55651865,6.44692636 L6.29569374,7.04841972 L6.68271176,7.17696745 L6.98380215,6.89787453 C7.58125228,6.3483209 8.29272886,5.93753766 9.06737516,5.6948878 L9.45439317,5.56565265 L9.53963338,5.15801201 L9.88334387,3.37484197 Z M10.7,7.49936789 C8.80959229,7.49936789 7.26289507,9.04606511 7.26289507,10.9364728 C7.26289507,12.8268805 8.80959229,14.3735777 10.7,14.3735777 C12.5904077,14.3735777 14.1371049,12.8268805 14.1371049,10.9364728 C14.1371049,9.04606511 12.5904077,7.49936789 10.7,7.49936789 Z M10.7,8.87420986 C11.8466182,8.87420986 12.762263,9.78985461 12.762263,10.9364728 C12.762263,12.083091 11.8466182,12.9987358 10.7,12.9987358 C9.5533818,12.9987358 8.63773704,12.083091 8.63773704,10.9364728 C8.63773704,9.78985461 9.5533818,8.87420986 10.7,8.87420986 Z"/>
</svg>
