<svg xmlns="http://www.w3.org/2000/svg" width="22" height="22" viewBox="0 0 22 22">
  <path d="M14.6875,3 C13.4548338,3 12.3376463,3.23095737 11.4648438,3.66601562 C10.5920412,4.10107456 9.875,4.81005894 9.875,5.75 L9.875,8.5 C9.875,8.58862288 9.90454119,8.67456038 9.91796875,8.7578125 C9.27880894,8.59130894 8.56982456,8.5 7.8125,8.5 C6.57983381,8.5 5.46264631,8.73095737 4.58984375,9.16601562 C3.71704119,9.60107456 3,10.3100589 3,11.25 L3,16.75 C3,17.6899417 3.71704119,18.3989261 4.58984375,18.8339844 C5.46264631,19.2690433 6.57983381,19.5 7.8125,19.5 C9.04516619,19.5 10.1623537,19.2690433 11.0351562,18.8339844 C11.9079588,18.3989261 12.625,17.6899417 12.625,16.75 L12.625,16.4707031 C13.2561037,16.6372074 13.9462891,16.75 14.6875,16.75 C15.9201662,16.75 17.0373537,16.5190433 17.9101562,16.0839844 C18.7829588,15.6489261 19.5,14.9399417 19.5,14 L19.5,5.75 C19.5,4.81005894 18.7829588,4.10107456 17.9101562,3.66601562 C17.0373537,3.23095737 15.9201662,3 14.6875,3 Z M14.6875,4.375 C15.7348636,4.375 16.6667479,4.60058594 17.2871094,4.91210938 C17.9074709,5.22363281 18.125,5.55126988 18.125,5.75 C18.125,5.94873081 17.9074709,6.27636719 17.2871094,6.58789062 C16.6667479,6.89941406 15.7348636,7.125 14.6875,7.125 C13.6401371,7.125 12.7082521,6.89941406 12.0878906,6.58789062 C11.4675291,6.27636719 11.25,5.94873081 11.25,5.75 C11.25,5.55126988 11.4675291,5.22363281 12.0878906,4.91210938 C12.7082521,4.60058594 13.6401371,4.375 14.6875,4.375 Z M11.25,7.70507812 C11.3225099,7.7453615 11.3896484,7.79638706 11.4648438,7.83398438 C12.3376463,8.26904331 13.4548338,8.5 14.6875,8.5 C15.9201662,8.5 17.0373537,8.26904331 17.9101562,7.83398438 C17.9853516,7.79638706 18.0524901,7.7453615 18.125,7.70507812 L18.125,8.5 C18.125,8.69873081 17.9074709,9.02636719 17.2871094,9.33789062 C16.6667479,9.64941406 15.7348636,9.875 14.6875,9.875 C13.6401371,9.875 12.7082521,9.64941406 12.0878906,9.33789062 C11.4675291,9.02636719 11.25,8.69873081 11.25,8.5 L11.25,7.70507812 Z M7.8125,9.875 C8.85986362,9.875 9.79174788,10.1005859 10.4121094,10.4121094 C11.0324709,10.7236328 11.25,11.0512699 11.25,11.25 C11.25,11.4487308 11.0324709,11.7763672 10.4121094,12.0878906 C9.79174788,12.3994141 8.85986362,12.625 7.8125,12.625 C6.76513706,12.625 5.83325212,12.3994141 5.21289062,12.0878906 C4.59252912,11.7763672 4.375,11.4487308 4.375,11.25 C4.375,11.0512699 4.59252912,10.7236328 5.21289062,10.4121094 C5.83325212,10.1005859 6.76513706,9.875 7.8125,9.875 Z M18.125,10.4550781 L18.125,11.25 C18.125,11.4487308 17.9074709,11.7763672 17.2871094,12.0878906 C16.6667479,12.3994141 15.7348636,12.625 14.6875,12.625 C13.9060057,12.625 13.1997074,12.4960938 12.625,12.3027344 L12.625,11.25 C12.625,11.1613771 12.5954588,11.0754396 12.5820312,10.9921875 C13.2211917,11.1586918 13.9301761,11.25 14.6875,11.25 C15.9201662,11.25 17.0373537,11.0190433 17.9101562,10.5839844 C17.9853516,10.5463871 18.0524901,10.4953615 18.125,10.4550781 Z M4.375,13.2050781 C4.44750994,13.2453615 4.51464844,13.2963871 4.58984375,13.3339844 C5.46264631,13.7690433 6.57983381,14 7.8125,14 C9.04516619,14 10.1623537,13.7690433 11.0351562,13.3339844 C11.1103516,13.2963871 11.1774901,13.2453615 11.25,13.2050781 L11.25,14 C11.25,14.1987308 11.0324709,14.5263672 10.4121094,14.8378906 C9.79174788,15.1494141 8.85986362,15.375 7.8125,15.375 C6.76513706,15.375 5.83325212,15.1494141 5.21289062,14.8378906 C4.59252912,14.5263672 4.375,14.1987308 4.375,14 L4.375,13.2050781 Z M18.125,13.2050781 L18.125,14 C18.125,14.1987308 17.9074709,14.5263672 17.2871094,14.8378906 C16.6667479,15.1494141 15.7348636,15.375 14.6875,15.375 C13.9060057,15.375 13.1997074,15.2648927 12.625,15.0742188 L12.625,13.7421875 C13.2561037,13.9086917 13.9436037,14 14.6875,14 C15.9201662,14 17.0373537,13.7690433 17.9101562,13.3339844 C17.9853516,13.2963871 18.0524901,13.2453615 18.125,13.2050781 Z M4.375,15.9550781 C4.44750994,15.9953615 4.51464844,16.0463871 4.58984375,16.0839844 C5.46264631,16.5190433 6.57983381,16.75 7.8125,16.75 C9.04516619,16.75 10.1623537,16.5190433 11.0351562,16.0839844 C11.1103516,16.0463871 11.1774901,15.9953615 11.25,15.9550781 L11.25,16.75 C11.25,16.9487308 11.0324709,17.2763672 10.4121094,17.5878906 C9.79174788,17.8994141 8.85986362,18.125 7.8125,18.125 C6.76513706,18.125 5.83325212,17.8994141 5.21289062,17.5878906 C4.59252912,17.2763672 4.375,16.9487308 4.375,16.75 L4.375,15.9550781 Z"/>
</svg>
