<svg xmlns="http://www.w3.org/2000/svg" width="22" height="22" viewBox="0 0 22 22">
  <path d="M3.0625,4 C1.93188494,4 1,4.93188494 1,6.0625 L1,15.6875 C1,16.8181151 1.93188494,17.75 3.0625,17.75 L18.1875,17.75 C19.3181151,17.75 20.25,16.8181151 20.25,15.6875 L20.25,6.0625 C20.25,4.93188494 19.3181151,4 18.1875,4 L3.0625,4 Z M3.0625,5.375 L18.1875,5.375 C18.5769041,5.375 18.875,5.67309587 18.875,6.0625 L18.875,7.4375 L3.0625,7.4375 L3.0625,8.8125 L18.875,8.8125 L18.875,15.6875 C18.875,16.0769041 18.5769041,16.375 18.1875,16.375 L3.0625,16.375 C2.67309588,16.375 2.375,16.0769041 2.375,15.6875 L2.375,6.0625 C2.375,5.67309587 2.67309588,5.375 3.0625,5.375 Z"/>
</svg>
