<svg xmlns="http://www.w3.org/2000/svg" width="22" height="22" viewBox="0 0 22 22">
  <path d="M11.375,4 C10.6149901,4 10,4.61499006 10,5.375 C10,6.13500994 10.6149901,6.75 11.375,6.75 C12.1350099,6.75 12.75,6.13500994 12.75,5.375 C12.75,4.61499006 12.1350099,4 11.375,4 Z M11.375,9.5 C10.6149901,9.5 10,10.1149901 10,10.875 C10,11.6350099 10.6149901,12.25 11.375,12.25 C12.1350099,12.25 12.75,11.6350099 12.75,10.875 C12.75,10.1149901 12.1350099,9.5 11.375,9.5 Z M11.375,15 C10.6149901,15 10,15.6149901 10,16.375 C10,17.1350099 10.6149901,17.75 11.375,17.75 C12.1350099,17.75 12.75,17.1350099 12.75,16.375 C12.75,15.6149901 12.1350099,15 11.375,15 Z"/>
</svg>
