<svg xmlns="http://www.w3.org/2000/svg" width="22" height="22" viewBox="0 0 22 22">
  <path d="M12.250297,3 C8.99261156,3 6.34725282,5.67221552 5.58990099,9.18772277 L4,9.18772277 L4,10.5627723 L5.4180198,10.5627723 C5.40190628,10.7883663 5.3750495,11.019332 5.3750495,11.250297 C5.3750495,11.4812627 5.40190628,11.7122277 5.4180198,11.9378218 L4,11.9378218 L4,13.3128713 L5.58990099,13.3128713 C6.34725282,16.8283785 8.99261156,19.5005941 12.250297,19.5005941 C14.1114478,19.5005941 15.8034036,18.6035895 17.02,17.2016832 L15.9672277,16.2993069 C14.9681683,17.4514478 13.6736885,18.1255446 12.250297,18.1255446 C9.84127492,18.1255446 7.71961616,16.1327974 7.00792079,13.3128713 L12.9378218,13.3128713 L12.9378218,11.9378218 L6.77158416,11.9378218 C6.75278448,11.7095423 6.75009901,11.4839482 6.75009901,11.250297 C6.75009901,11.0166459 6.75278448,10.7910518 6.77158416,10.5627723 L12.9378218,10.5627723 L12.9378218,9.18772277 L7.00792079,9.18772277 C7.71961616,6.36779737 9.84127492,4.3750495 12.250297,4.3750495 C13.6736885,4.3750495 14.9681683,5.04914621 15.9672277,6.20128713 L17.02,5.29891089 C15.8034036,3.89700529 14.1114478,3 12.250297,3 Z"/>
</svg>
