<svg xmlns="http://www.w3.org/2000/svg" width="22" height="22" viewBox="0 0 22 22">
  <path d="M10.94,2 C6.01019569,2 2,6.01019569 2,10.94 C2,15.8698051 6.01019569,19.88 10.94,19.88 C15.8698051,19.88 19.88,15.8698051 19.88,10.94 C19.88,6.01019569 15.8698051,2 10.94,2 Z M10.94,3.49 C15.0636912,3.49 18.39,6.81630878 18.39,10.94 C18.39,15.0636912 15.0636912,18.39 10.94,18.39 C6.81630878,18.39 3.49,15.0636912 3.49,10.94 C3.49,6.81630878 6.81630878,3.49 10.94,3.49 Z M10.195,6.47 L10.195,12.43 L11.685,12.43 L11.685,6.47 L10.195,6.47 Z M10.195,13.92 L10.195,15.41 L11.685,15.41 L11.685,13.92 L10.195,13.92 Z"/>
</svg>
