<svg xmlns="http://www.w3.org/2000/svg" width="22" height="22" viewBox="0 0 22 22">
  <path d="M2,1 L2,18.88 L13.0030769,18.88 L13.0030769,17.5046154 L3.37538462,17.5046154 L3.37538462,2.37538462 L10.2523077,2.37538462 L10.2523077,6.50153846 L14.3784615,6.50153846 L14.3784615,7.87692308 L15.7538462,7.87692308 L15.7538462,5.53850062 L15.5470014,5.33299876 L11.4208475,1.20684492 L11.2153458,1 L2,1 Z M11.6276923,3.33842246 L13.4154234,5.12615385 L11.6276923,5.12615385 L11.6276923,3.33842246 Z M4.75076923,7.87692308 L4.75076923,9.25230769 L13.0030769,9.25230769 L13.0030769,7.87692308 L4.75076923,7.87692308 Z M16.4415385,9.25230769 L16.4415385,10.6276923 C15.2724615,10.834 14.3784615,11.7967692 14.3784615,13.0346154 C14.3784615,14.41 15.41,15.4415385 16.7853846,15.4415385 L17.4730769,15.4415385 C18.0232308,15.4415385 18.5046154,15.9229231 18.5046154,16.4730769 C18.5046154,17.0232308 18.0232308,17.5046154 17.4730769,17.5046154 L15.0661538,17.5046154 L15.0661538,18.88 L16.4415385,18.88 L16.4415385,20.2553846 L17.8169231,20.2553846 L17.8169231,18.88 C18.986,18.6736923 19.88,17.7109231 19.88,16.4730769 C19.88,15.0976923 18.8484615,14.0661538 17.4730769,14.0661538 L16.7853846,14.0661538 C16.2352308,14.0661538 15.7538462,13.5847692 15.7538462,13.0346154 C15.7538462,12.4844615 16.2352308,12.0030769 16.7853846,12.0030769 L19.1923077,12.0030769 L19.1923077,10.6276923 L17.8169231,10.6276923 L17.8169231,9.25230769 L16.4415385,9.25230769 Z M4.75076923,11.3153846 L4.75076923,12.6907692 L9.56461538,12.6907692 L9.56461538,11.3153846 L4.75076923,11.3153846 Z M10.94,11.3153846 L10.94,12.6907692 L13.0030769,12.6907692 L13.0030769,11.3153846 L10.94,11.3153846 Z M4.75076923,14.0661538 L4.75076923,15.4415385 L9.56461538,15.4415385 L9.56461538,14.0661538 L4.75076923,14.0661538 Z M10.94,14.0661538 L10.94,15.4415385 L13.0030769,15.4415385 L13.0030769,14.0661538 L10.94,14.0661538 Z"/>
</svg>
