<svg xmlns="http://www.w3.org/2000/svg" width="22" height="22" viewBox="0 0 22 22">
  <path d="M8.08497795,3 L7.1226868,3.96094927 L8.35876829,5.19837265 L3.61844326,9.94003984 C2.79385221,10.7646309 2.79385228,12.069428 3.61844326,12.8940191 L3.68689077,12.9638083 L8.01518869,17.292106 C8.83977973,18.116697 10.1459189,18.116697 10.9705099,17.292106 L16.1926512,12.0699647 L16.674468,11.5894899 L10.0082184,4.92324056 L9.45929636,4.37431841 L9.32105917,4.23608136 L8.08497795,3 Z M9.32105917,6.16066394 L14.7498856,11.5894899 L13.238672,13.1007035 L5.7470263,13.1007035 L4.57939253,11.9330695 C4.30452878,11.6582058 4.30452878,11.1771944 4.57939253,10.9023307 L9.32105917,6.16066394 Z M17.4985224,13.9945471 L16.9482584,14.8186015 C16.9482584,14.8186015 16.6049467,15.3677922 16.1926512,15.9862355 C15.9865035,16.3298151 15.849609,16.6049468 15.7121771,16.9485264 C15.5747453,17.292106 15.4370448,17.4985224 15.4370448,17.9108179 C15.4370448,19.0102727 16.3990677,19.9722955 17.4985224,19.9722955 C18.5979771,19.9722955 19.56,19.0102727 19.56,17.9108179 C19.56,17.4985224 19.4222995,17.2236587 19.2848676,16.8800791 C19.1474358,16.5364995 18.9418254,16.1926512 18.8043936,15.9177876 C18.460814,15.2993443 18.0487864,14.7501543 18.0487864,14.7501543 L17.4985224,13.9945471 Z"/>
</svg>
