<svg xmlns="http://www.w3.org/2000/svg" width="22" height="22" viewBox="0 0 22 22">
  <path d="M3,2 L3,19.0645768 L3.537115,19.1718623 L11.7898423,20.8911805 L12.6281818,21.0631123 L12.6281818,19.1931818 L16.7545455,19.1931818 L16.7545455,10.5532641 L17.9367486,9.37174864 L18.13,9.15649 L18.13,2 L3,2 Z M9.27551136,3.37545455 L16.7545455,3.37545455 L16.7545455,8.57673591 L15.5723423,9.75825136 L15.3790909,9.97351 L15.3790909,17.8177273 L12.6281818,17.8177273 L12.6281818,11.6928282 L12.4349305,11.4775695 L11.2527273,10.2960541 L11.2527273,3.86993045 L9.27551136,3.37545455 Z M4.37545455,3.56870591 L9.87727273,4.94416045 L9.87727273,10.8758082 L10.0705241,11.0910668 L11.2527273,12.2725823 L11.2527273,19.3864332 L4.37545455,17.94702 L4.37545455,3.56870591 Z"/>
</svg>
