<svg xmlns="http://www.w3.org/2000/svg" width="22" height="22" viewBox="0 0 22 22">
  <path d="M12.9023438,4.00029833 C12.5209964,4.0029837 12.1423338,4.0217827 11.7421875,4.12920458 C11.3420412,4.23662645 10.9418949,4.40850145 10.5175781,4.68779833 C9.99121094,4.37896027 9.48095738,4.12383383 8.9921875,4.06475145 C8.38525425,3.98955614 7.82128906,4.02983952 7.16601562,4.04326708 C6.38989275,4.0593807 5.88232456,4.45684164 5.06054688,4.77373583 C4.23876987,5.0906307 3.18066406,5.3967827 1.6875,5.3967827 L1,5.3967827 L1,12.0139702 L1.38671875,12.2073296 L2.65429688,12.8303765 L7.16601562,17.8577202 L7.1875,17.8792046 C7.703125,18.3894588 8.39868181,18.515679 9.01367188,18.4807671 C9.62866194,18.4458551 10.2060547,18.2659233 10.6679688,17.9866265 C11.6831058,17.3743218 14.4492188,15.4514702 14.4492188,15.4514702 L14.5136719,15.4085015 L14.5566406,15.3655327 C14.8842777,15.0405817 15.0480959,14.6431208 15.1582031,14.2268608 L17.8007812,12.8948296 L19.7773438,12.228814 L20.25,12.0784233 L20.25,5.3967827 L19.5625,5.3967827 C18.0720213,5.3967827 17.0112308,5.07451708 16.1894531,4.75225145 C15.3676761,4.42998583 14.8681641,4.03789633 14.0839844,4.0217827 C13.6650391,4.01372589 13.2836917,3.99761295 12.9023438,4.00029833 Z M12.9238281,5.37529833 C13.2326662,5.37261295 13.5898438,5.38872589 14.0410156,5.3967827 C14.1135256,5.39946808 14.7741698,5.68145102 15.6953125,6.04131395 C16.4741214,6.34746664 17.5563963,6.6187067 18.875,6.70732958 L18.875,11.0901421 L17.2851562,11.6272515 L17.2421875,11.6272515 L17.1992188,11.6487358 L15.1152344,12.7014702 C14.9997557,12.3872614 14.8413089,12.0972223 14.5996094,11.8420952 L14.5566406,11.7776421 L11.6347656,8.18975145 L11.2050781,7.65264208 L10.6679688,8.08232958 L8.8203125,9.58623583 C8.199951,10.0159233 7.69775425,9.89238852 7.1875,9.65068895 C7.03979475,9.58086508 7.04785156,9.5593807 6.9296875,9.47881395 L10.0664062,6.87920458 L10.109375,6.83623583 C11.0412599,5.9124077 11.6132812,5.59282745 12.1074219,5.46123583 C12.3544922,5.39409733 12.6149901,5.3779837 12.9238281,5.37529833 Z M8.1328125,5.3967827 C8.39599644,5.39141195 8.61621094,5.39409733 8.8203125,5.41826708 C9.00024431,5.43975145 9.20434587,5.59282745 9.37890625,5.6545952 C9.30908237,5.71904833 9.25805681,5.75664633 9.18554687,5.8264702 C9.16943394,5.84258383 9.15869175,5.85332602 9.14257812,5.86943895 L5.3828125,8.98467333 L4.80273438,9.45732958 L5.31835937,9.99443895 C5.31835937,9.99443895 5.81518537,10.5315483 6.5859375,10.8967827 C7.35668962,11.2620171 8.54638706,11.468804 9.61523437,10.7249077 L9.65820312,10.681939 L10.9902344,9.58623583 L13.5253906,12.7014702 L13.546875,12.744439 L13.5683594,12.7659233 C14.0222166,13.2144098 14.0114744,13.9207088 13.5683594,14.3772515 C13.5629886,14.3826229 13.5737308,14.3933651 13.5683594,14.3987358 C13.5629886,14.4014212 13.4716797,14.4551321 13.4609375,14.463189 L12.5585937,13.2385796 L11.4414062,14.0549858 L12.3222656,15.2366265 C11.9650881,15.478326 11.8039552,15.6045462 11.4199219,15.8596733 L10.4960937,14.6135796 L9.37890625,15.4299858 L10.2597656,16.6116265 C10.1818849,16.6599666 10.0207521,16.7673885 9.95898438,16.8049858 C9.74145525,16.9365775 9.32250994,17.0842827 8.94921875,17.1057671 C8.59741194,17.1245661 8.32885725,17.0439993 8.19726562,16.9338921 L8.17578125,16.9124077 L3.578125,11.8206108 L3.4921875,11.713189 L2.375,11.1545952 L2.375,6.70732958 C3.68823225,6.62139208 4.77856462,6.3608942 5.5546875,6.06279833 C6.47314488,5.71099152 7.12841831,5.42095245 7.20898437,5.41826708 C7.56079119,5.41021027 7.86962925,5.40215414 8.1328125,5.3967827 Z"/>
</svg>
