<svg xmlns="http://www.w3.org/2000/svg" width="22" height="22" viewBox="0 0 22 22">
  <path d="M11.25,3 C6.7010966,3 3,6.7010966 3,11.25 C3,15.7989034 6.7010966,19.5 11.25,19.5 C15.7989034,19.5 19.5,15.7989034 19.5,11.25 C19.5,6.7010966 15.7989034,3 11.25,3 Z M11.25,4.26923077 C15.1122299,4.26923077 18.2307692,7.38777075 18.2307692,11.25 C18.2307692,15.1122299 15.1122299,18.2307692 11.25,18.2307692 C7.38777075,18.2307692 4.26923077,15.1122299 4.26923077,11.25 C4.26923077,7.38777075 7.38777075,4.26923077 11.25,4.26923077 Z M10.6153846,7.44230769 L10.6153846,8.71153846 L11.8846154,8.71153846 L11.8846154,7.44230769 L10.6153846,7.44230769 Z M10.6153846,9.98076923 L10.6153846,15.0576923 L11.8846154,15.0576923 L11.8846154,9.98076923 L10.6153846,9.98076923 Z"/>
</svg>
