<svg xmlns="http://www.w3.org/2000/svg" xmlns:xlink="http://www.w3.org/1999/xlink" width="18" height="18" viewBox="0 0 18 18">
  <defs>
    <linearGradient id="instagram-b" x1="50%" x2="50%" y1="0%" y2="100%">
      <stop offset="0%" stop-color="#6C29B6"/>
      <stop offset="100%" stop-color="#F05831"/>
    </linearGradient>
    <path id="instagram-a" d="M5.29281818,0 C2.38745455,0 0,2.38418182 0,5.29281818 L0,12.7071818 C0,15.6125455 2.38418182,18 5.29281818,18 L12.7071818,18 C15.6125455,18 18,15.6158182 18,12.7071818 L18,5.29363636 C18,2.38745455 15.6158182,0 12.7071818,0 L5.29281818,0 Z M5.29281818,1.63636033 L12.7071818,1.63636033 C13.6773334,1.6350585 14.6081254,2.01987187 15.2941268,2.70587323 C15.9801281,3.3918746 16.3649415,4.32266662 16.3636397,5.29281818 L16.3636397,12.7071818 C16.3649415,13.6773334 15.9801281,14.6081254 15.2941268,15.2941268 C14.6081254,15.9801281 13.6773334,16.3649415 12.7071818,16.3636409 L5.29363636,16.3636409 C4.32334314,16.3651591 3.39234061,15.9804418 2.7061621,15.2944168 C2.01998358,14.6083918 1.63505799,13.6774754 1.63635913,12.7071818 L1.63635913,5.29363636 C1.6348409,4.32334314 2.0195582,3.39234061 2.70558321,2.7061621 C3.39160821,2.01998358 4.32252464,1.63505799 5.29281818,1.63636033 L5.29281818,1.63636033 Z M13.8321818,3.42653406 C13.6353171,3.42567049 13.4462627,3.50348764 13.307057,3.64269336 C13.1678513,3.78189909 13.0900341,3.9709535 13.0909018,4.16781818 C13.0909018,4.58018182 13.4198182,4.9091023 13.8321818,4.9091023 C14.0291879,4.91018493 14.2184536,4.8324645 14.3578369,4.69323485 C14.4972203,4.55400519 14.5751494,4.36482539 14.57428,4.16781818 C14.5751494,3.97081097 14.4972203,3.78163117 14.3578369,3.64240152 C14.2184536,3.50317186 14.0291879,3.42545144 13.8321818,3.42653406 L13.8321818,3.42653406 Z M9,4.09090909 C6.3,4.09090909 4.09090909,6.3 4.09090909,9 C4.09090909,11.7 6.3,13.9090909 9,13.9090909 C11.7,13.9090909 13.9090909,11.7 13.9090909,9 C13.9090909,6.3 11.7,4.09090909 9,4.09090909 Z M9,5.72727273 C10.8188182,5.72727273 12.2727273,7.18118182 12.2727273,9 C12.2727273,10.8188182 10.8188182,12.2727273 9,12.2727273 C7.18118182,12.2727273 5.72727273,10.8188182 5.72727273,9 C5.72727273,7.18118182 7.18118182,5.72727273 9,5.72727273 Z"/>
  </defs>
  <g fill="none">
    <use fill="#000" xlink:href="#instagram-a"/>
    <use fill="url(#instagram-b)" xlink:href="#instagram-a"/>
  </g>
</svg>
