<svg xmlns="http://www.w3.org/2000/svg" width="22" height="22" viewBox="0 0 22 22">
  <path d="M10.94,2 C6.01062154,2 2,6.01062154 2,10.94 C2,15.8693785 6.01062154,19.88 10.94,19.88 C15.8693785,19.88 19.88,15.8693785 19.88,10.94 C19.88,6.01062154 15.8693785,2 10.94,2 Z M10.94,3.37538462 C15.1108538,3.37538462 18.5046154,6.76914615 18.5046154,10.94 C18.5046154,15.1108538 15.1108538,18.5046154 10.94,18.5046154 C6.76914615,18.5046154 3.37538462,15.1108538 3.37538462,10.94 C3.37538462,6.76914615 6.76914615,3.37538462 10.94,3.37538462 Z M7.84538462,8.18923077 C7.27568165,8.18923077 6.81384615,8.65106627 6.81384615,9.22076923 C6.81384615,9.79047219 7.27568165,10.2523077 7.84538462,10.2523077 C8.41508758,10.2523077 8.87692308,9.79047219 8.87692308,9.22076923 C8.87692308,8.65106627 8.41508758,8.18923077 7.84538462,8.18923077 Z M14.0346154,8.18923077 C13.4649124,8.18923077 13.0030769,8.65106627 13.0030769,9.22076923 C13.0030769,9.79047219 13.4649124,10.2523077 14.0346154,10.2523077 C14.6043183,10.2523077 15.0661538,9.79047219 15.0661538,9.22076923 C15.0661538,8.65106627 14.6043183,8.18923077 14.0346154,8.18923077 Z M6.12615385,13.0030769 C6.12615385,13.0030769 7.2299,16.4415385 10.94,16.4415385 C14.6501,16.4415385 15.7538462,13.0030769 15.7538462,13.0030769 L6.12615385,13.0030769 Z"/>
</svg>
