<svg xmlns="http://www.w3.org/2000/svg" width="22" height="22" viewBox="0 0 22 22">
  <path d="M11.19,3 C7.78068556,3 5,5.78068556 5,9.19 C5,10.5091578 5.58048444,11.87646 6.37555556,13.10208 C6.96704444,14.0126978 7.67339222,14.8504111 8.43888889,15.4872933 L8.43888889,17.4433333 C8.43888889,18.1957622 9.06201556,18.8188889 9.81444444,18.8188889 L10.5022222,19.5066667 L11.8777778,19.5066667 L12.5655556,18.8188889 C13.3179844,18.8188889 13.9411111,18.1957622 13.9411111,17.4433333 L13.9411111,15.4872933 C14.7066078,14.8504111 15.4129556,14.0126978 16.0044444,13.10208 C16.7995156,11.87646 17.38,10.5091578 17.38,9.19 C17.38,5.78068556 14.5993144,3 11.19,3 Z M11.19,4.37555556 C13.85789,4.37555556 16.0044444,6.52211 16.0044444,9.19 C16.0044444,10.0903011 15.5608278,11.2774056 14.8654844,12.3496511 C14.2444211,13.3056622 13.4280289,14.1578189 12.6728489,14.6922222 L9.70715111,14.6922222 C8.95197111,14.1578189 8.13557889,13.3056622 7.51451556,12.3496511 C6.81917222,11.2774056 6.37555556,10.0903011 6.37555556,9.19 C6.37555556,6.52211 8.52211,4.37555556 11.19,4.37555556 Z M9.98638889,16.0677778 L12.3936111,16.0677778 C12.4472578,16.1056056 12.5036556,16.1324289 12.5655556,16.15375 L12.5655556,17.4433333 L9.81444444,17.4433333 L9.81444444,16.15375 C9.87550488,16.1332918 9.93338608,16.1043512 9.98638889,16.0677778 L9.98638889,16.0677778 Z"/>
</svg>
