<svg xmlns="http://www.w3.org/2000/svg" width="18" height="18" viewBox="0 0 18 18">
  <g fill="none">
    <path fill="#007BB5" d="M16.668375,0 L1.3275,0 C0.5955,0 0.000374822988,0.58125 0.000374822988,1.2975 L0.000374822988,16.701 C-1.23382207e-16,17.418 0.5955,18 1.3275,18 L16.668,18 C17.401875,18 17.9992507,17.418 17.9992507,16.701 L17.9992507,1.297875 C18,0.580875 17.40225,0 16.66875,0 L16.668375,0 Z"/>
    <path fill="#FFF" d="M2.667375 6.748125L5.339625 6.748125 5.339625 15.3375 2.667375 15.3375 2.667375 6.748125zM4.00425 2.478C4.56555934 2.46606037 5.08937559 2.75882944 5.37329902 3.24318284 5.65722245 3.72753625 5.65678645 4.32761707 5.37215949 4.81155738 5.08753252 5.29549769 4.5632914 5.58750527 4.002 5.57475 3.16013899 5.55561882 2.48782464 4.86735261 2.48843605 4.02527448 2.48904829 3.18319634 3.16236208 2.49590782 4.00425 2.478M7.014375 6.748125L9.573375 6.748125 9.573375 7.92225 9.610125 7.92225C9.966375 7.24725 10.837125 6.53475 12.136125 6.53475 14.839125 6.53475 15.338625 8.313375 15.338625 10.627125L15.338625 15.3375 12.669375 15.3375 12.669375 11.16C12.669375 10.164 12.652125 8.882625 11.281875 8.882625 9.892875 8.882625 9.680625 9.96825 9.680625 11.089125L9.680625 15.337875 7.014375 15.337875 7.014375 6.74775 7.014375 6.748125z"/>
  </g>
</svg>
