<svg xmlns="http://www.w3.org/2000/svg" width="22" height="22" viewBox="0 0 22 22">
  <path d="M15.203125,3 C14.0537109,3 12.9633792,3.45385725 12.1523438,4.26757812 L11.1425781,5.27734375 C10.3288573,6.09106462 9.875,7.17871094 9.875,8.328125 C9.875,8.87329119 9.9797365,9.40502912 10.1757812,9.89648438 L11.2929688,8.77929688 C11.1533203,7.88769531 11.4245604,6.92895525 12.109375,6.24414062 L13.1191406,5.234375 C13.6723636,4.68115269 14.4216307,4.375 15.203125,4.375 C15.9846193,4.375 16.7124027,4.68115269 17.265625,5.234375 C18.4069822,6.37573225 18.4069822,8.23950212 17.265625,9.38085938 L16.2558594,10.390625 C15.7026371,10.943848 14.9533693,11.25 14.171875,11.25 C14.018799,11.25 13.8684084,11.2338871 13.7207031,11.2070312 L12.6035156,12.3242188 C13.0949709,12.5202635 13.6267088,12.625 14.171875,12.625 C15.3212891,12.625 16.4116214,12.1711427 17.2226562,11.3574219 L18.2324219,10.3476562 C19.0461428,9.53393538 19.5,8.44628906 19.5,7.296875 C19.5,6.14746094 19.0461428,5.081299 18.2324219,4.26757812 C17.4213871,3.45385725 16.3525391,3 15.203125,3 Z M13.5058594,8.00585938 L8.00585938,13.5058594 L8.99414062,14.4941406 L14.4941406,8.99414062 L13.5058594,8.00585938 Z M8.328125,9.875 C7.17871094,9.875 6.08837925,10.3288573 5.27734375,11.1425781 L4.26757812,12.1523438 C3.45385725,12.9660646 3,14.0537109 3,15.203125 C3,16.3525391 3.45385725,17.418701 4.26757812,18.2324219 C5.07861362,19.0461428 6.14746094,19.5 7.296875,19.5 C8.44628906,19.5 9.53662144,19.0461428 10.3476562,18.2324219 L11.3574219,17.2226562 C12.1711427,16.4089354 12.625,15.3212891 12.625,14.171875 C12.625,13.6267088 12.5202635,13.0949709 12.3242188,12.6035156 L11.2070312,13.7207031 C11.3466797,14.6123047 11.0754396,15.5710448 10.390625,16.2558594 L9.38085938,17.265625 C8.82763706,17.818848 8.07836931,18.125 7.296875,18.125 C6.51538069,18.125 5.787598,17.818848 5.234375,17.265625 C4.09301775,16.1242678 4.09301775,14.2604979 5.234375,13.1191406 L6.24414062,12.109375 C6.79736363,11.5561527 7.54663069,11.25 8.328125,11.25 C8.481201,11.25 8.63159163,11.2661136 8.77929688,11.2929688 L9.89648438,10.1757812 C9.40502912,9.9797365 8.87329119,9.875 8.328125,9.875 Z"/>
</svg>
