<svg xmlns="http://www.w3.org/2000/svg" width="18" height="18" viewBox="0 0 18 18">
  <path fill="#0073B1" d="M2.16245455,-6.20612034e-07 C1.5892282,-0.000434139105 1.03931919,0.226918857 0.633756733,0.632020971 C0.228194275,1.03712308 0.000216884638,1.58677353 0,2.16 C0,3.35454545 0.967909091,4.34454545 2.16,4.34454545 C3.35372727,4.34454545 4.32245517,3.35454545 4.32245517,2.16163636 C4.32288875,1.58848528 4.09550967,1.03866035 3.69038403,0.633227785 C3.28525838,0.227795223 2.73560579,-6.20612034e-07 2.16245455,-6.20612034e-07 Z M12.7104545,5.72727273 C10.8949091,5.72727273 9.85663636,6.67636364 9.35754545,7.62054545 L9.30518182,7.62054545 L9.30518182,5.98172727 L5.72727273,5.98172727 L5.72727273,18 L9.45572727,18 L9.45572727,12.051 C9.45572727,10.4833636 9.57354545,8.96809091 11.5134545,8.96809091 C13.4255455,8.96809091 13.4533636,10.7558182 13.4533636,12.15 L13.4533636,18 L17.1818182,18 L17.1818182,11.3989091 C17.1818182,8.16872727 16.4871818,5.72727273 12.7104545,5.72727273 Z M0.297,5.98090909 L0.297,18 L4.02790909,18 L4.02790909,5.98090909 L0.297,5.98090909 Z"/>
</svg>
