<svg xmlns="http://www.w3.org/2000/svg" width="22" height="22" viewBox="0 0 22 22">
  <path d="M10.875,2 C8.23242188,2 6.0625,4.16992188 6.0625,6.8125 L6.0625,8.875 L4,8.875 L4,19.875 L17.75,19.875 L17.75,8.875 L15.6875,8.875 L15.6875,6.8125 C15.6875,4.16992188 13.5175781,2 10.875,2 Z M10.875,3.375 C12.7683104,3.375 14.3125,4.91918963 14.3125,6.8125 L14.3125,8.875 L7.4375,8.875 L7.4375,6.8125 C7.4375,4.91918963 8.98168962,3.375 10.875,3.375 Z M5.375,10.25 L16.375,10.25 L16.375,18.5 L5.375,18.5 L5.375,10.25 Z"/>
</svg>
