<svg xmlns="http://www.w3.org/2000/svg" width="22" height="22" viewBox="0 0 22 22">
  <path d="M2,3 L2,15.3784615 C2,16.8982615 3.23096923,18.1292308 4.75076923,18.1292308 L17.1292308,18.1292308 C18.6490308,18.1292308 19.88,16.8982615 19.88,15.3784615 L19.88,7.81384615 L15.7538462,7.81384615 L15.7538462,3 L2,3 Z M3.37538462,4.37538462 L14.3784615,4.37538462 L14.3784615,15.3784615 C14.3784615,15.8804769 14.5318169,16.3481077 14.7656323,16.7538462 L4.75076923,16.7538462 C3.93172769,16.7538462 3.37538462,16.1975031 3.37538462,15.3784615 L3.37538462,4.37538462 Z M4.75076923,5.75076923 L4.75076923,9.18923077 L13.0030769,9.18923077 L13.0030769,5.75076923 L4.75076923,5.75076923 Z M6.12615385,7.12615385 L11.6276923,7.12615385 L11.6276923,7.81384615 L6.12615385,7.81384615 L6.12615385,7.12615385 Z M15.7538462,9.18923077 L18.5046154,9.18923077 L18.5046154,15.3784615 C18.5046154,16.1975031 17.9482723,16.7538462 17.1292308,16.7538462 C16.3101892,16.7538462 15.7538462,16.1975031 15.7538462,15.3784615 L15.7538462,9.18923077 Z M4.75076923,9.87692308 L4.75076923,11.2523077 L8.18923077,11.2523077 L8.18923077,9.87692308 L4.75076923,9.87692308 Z M9.56461538,9.87692308 L9.56461538,11.2523077 L13.0030769,11.2523077 L13.0030769,9.87692308 L9.56461538,9.87692308 Z M4.75076923,11.94 L4.75076923,13.3153846 L8.18923077,13.3153846 L8.18923077,11.94 L4.75076923,11.94 Z M9.56461538,11.94 L9.56461538,13.3153846 L13.0030769,13.3153846 L13.0030769,11.94 L9.56461538,11.94 Z M4.75076923,14.0030769 L4.75076923,15.3784615 L8.18923077,15.3784615 L8.18923077,14.0030769 L4.75076923,14.0030769 Z M9.56461538,14.0030769 L9.56461538,15.3784615 L13.0030769,15.3784615 L13.0030769,14.0030769 L9.56461538,14.0030769 Z"/>
</svg>
