<svg xmlns="http://www.w3.org/2000/svg" width="22" height="22" viewBox="0 0 22 22">
  <path d="M16.8748843,3 C16.1553663,3 15.4358483,3.27921594 14.8774165,3.83764781 L4.00947301,14.7055913 L3.96651671,14.9203728 L3.21478149,18.700527 L3,19.71 L4.00947301,19.4952185 L7.78962725,18.7434833 L8.00440874,18.700527 L18.8723522,7.83258355 C19.9892159,6.71571979 19.9892159,4.95451157 18.8723522,3.83764781 C18.3139203,3.27921594 17.5944023,3 16.8748843,3 Z M16.8748843,4.3101671 C17.2212193,4.3101671 17.5702396,4.46856862 17.9058355,4.80416452 C18.5743427,5.47267174 18.5743427,6.19755962 17.9058355,6.86606684 L17.411838,7.33858612 L15.3714139,5.29816195 L15.8439332,4.80416452 C16.1795291,4.46856862 16.5285493,4.3101671 16.8748843,4.3101671 Z M14.4048972,6.26467866 L16.4453213,8.30510283 L8.13327763,16.6171465 C7.6822365,15.7365424 6.97345758,15.0277635 6.09285347,14.5767224 L14.4048972,6.26467866 Z M5.21224936,15.6935861 C6.0364735,16.0264974 6.68350257,16.6735265 7.01641388,17.4977506 L4.76120823,17.9487918 L5.21224936,15.6935861 Z"/>
</svg>
