<svg xmlns="http://www.w3.org/2000/svg" width="22" height="22" viewBox="0 0 22 22">
  <path d="M6.40625,4 C5.08496094,4 4,5.08496094 4,6.40625 L4,8.46875 C4,9.79003906 5.08496094,10.875 6.40625,10.875 C7.72753906,10.875 8.8125,9.79003906 8.8125,8.46875 L8.8125,6.40625 C8.8125,5.08496094 7.72753906,4 6.40625,4 Z M14.140625,4 L5.890625,17.75 L7.609375,17.75 L15.859375,4 L14.140625,4 Z M6.40625,5.375 C6.98364275,5.375 7.4375,5.82885725 7.4375,6.40625 L7.4375,8.46875 C7.4375,9.04614275 6.98364275,9.5 6.40625,9.5 C5.82885725,9.5 5.375,9.04614275 5.375,8.46875 L5.375,6.40625 C5.375,5.82885725 5.82885725,5.375 6.40625,5.375 Z M15.34375,10.875 C14.0224609,10.875 12.9375,11.9599609 12.9375,13.28125 L12.9375,15.34375 C12.9375,16.6650391 14.0224609,17.75 15.34375,17.75 C16.6650391,17.75 17.75,16.6650391 17.75,15.34375 L17.75,13.28125 C17.75,11.9599609 16.6650391,10.875 15.34375,10.875 Z M15.34375,12.25 C15.9211427,12.25 16.375,12.7038573 16.375,13.28125 L16.375,15.34375 C16.375,15.9211427 15.9211427,16.375 15.34375,16.375 C14.7663573,16.375 14.3125,15.9211427 14.3125,15.34375 L14.3125,13.28125 C14.3125,12.7038573 14.7663573,12.25 15.34375,12.25 Z"/>
</svg>
