<?xml version="1.0" encoding="UTF-8"?>
<svg width="18px" height="18px" viewBox="0 0 18 18" version="1.1" xmlns="http://www.w3.org/2000/svg" xmlns:xlink="http://www.w3.org/1999/xlink">
    <title>3CB311A5-5127-4CBD-B46E-5CD00EEF7ECC</title>
    <g id="Incorp---PP-Web" stroke="none" stroke-width="1" fill="none" fill-rule="evenodd">
        <g id="[UI]-2-Incorp-Step-3" transform="translate(-782.000000, -800.000000)" fill="#1EB386" fill-rule="nonzero">
            <g id="Content" transform="translate(614.000000, 104.000000)">
                <g id="Section" transform="translate(24.000000, 497.000000)">
                    <g id="Time" transform="translate(130.000000, 185.000000)">
                        <g id="Phone" transform="translate(14.000000, 13.000000)">
                            <g id="phone-solid" transform="translate(0.000000, 1.000000)">
                                <path d="M3.92701443,0 C3.56540785,0 3.20919806,0.129675402 2.91235621,0.367413638 L2.86917927,0.389026205 L2.8475908,0.410638772 L0.688743535,2.63673317 L0.710332008,2.65834574 C0.0437877439,3.2743039 -0.161302746,4.19553939 0.127443248,4.99250297 C0.130141634,4.99790646 0.124744862,5.00871274 0.127443248,5.01411554 C0.713030394,6.69179087 2.21073085,9.93097452 5.13596889,12.8594773 C8.07200116,15.7987865 11.3507506,17.2387236 12.9725844,17.8735929 L12.9941729,17.8735929 C13.833425,18.1545562 14.7428392,17.9546404 15.3904934,17.3981164 L17.5709291,15.2152471 C18.1430236,14.6425141 18.1430236,13.648336 17.5709291,13.075603 L14.7644277,10.2659693 L14.7428392,10.2227442 C14.1707447,9.65001115 13.1560865,9.65001115 12.5839919,10.2227442 L11.2023297,11.6059485 C10.7030964,11.3655088 9.51303206,10.7495507 8.37423978,9.66081743 C7.24354336,8.58018908 6.66605206,7.33746648 6.45286572,6.85118373 L7.83452797,5.46797944 C8.41471834,4.88714153 8.42551258,3.91997951 7.81293949,3.34994788 L7.83452797,3.32833531 L7.76976255,3.26349761 L5.00643806,0.410638772 L4.98484958,0.389026205 L4.94167264,0.367413638 C4.64483148,0.129675402 4.28862169,0 3.92701443,0 Z M3.92701443,1.38320429 C3.97828722,1.38320429 4.02956002,1.40751825 4.07813373,1.44804199 L6.84145823,4.27928826 L6.90622364,4.34412596 C6.90082687,4.33872316 6.9467022,4.41166506 6.8630467,4.49541393 L5.13596889,6.22441929 L4.8121418,6.52699522 L4.96326111,6.95924656 C4.96326111,6.95924656 5.75663782,9.08538301 7.42434699,10.6766081 L7.57546629,10.8062835 C9.18110912,12.2732366 11.0727989,13.075603 11.0727989,13.075603 L11.5045683,13.2701161 L13.5554732,11.2169223 C13.6742098,11.0980531 13.6526213,11.0980531 13.7713579,11.2169223 L16.5994478,14.0481685 C16.7181844,14.1670376 16.7181844,14.1238125 16.5994478,14.2426816 L14.4837775,16.3607132 C14.1653479,16.6335717 13.8280275,16.6903052 13.4259424,16.5552263 C11.8607781,15.9392681 8.81950185,14.6019904 6.10745016,11.8869118 C3.37380999,9.15022071 1.94627241,6.04611595 1.4227516,4.53863906 C1.31750763,4.25767569 1.39306728,3.84163412 1.63863633,3.63091125 L1.68181327,3.58768612 L3.77589512,1.44804199 C3.82446953,1.40751825 3.87574163,1.38320429 3.92701443,1.38320429 Z" id="Shape"></path>
                            </g>
                        </g>
                    </g>
                </g>
            </g>
        </g>
    </g>
</svg>