<svg xmlns="http://www.w3.org/2000/svg" width="22" height="22" viewBox="0 0 22 22">
  <path d="M10.94,2 C6.01064286,2 2,6.01064286 2,10.94 C2,15.8693571 6.01064286,19.88 10.94,19.88 C15.8693571,19.88 19.88,15.8693571 19.88,10.94 C19.88,6.01064286 15.8693571,2 10.94,2 Z M10.94,3.37538462 C15.1252527,3.37538462 18.5046154,6.75474794 18.5046154,10.94 C18.5046154,15.1252527 15.1252527,18.5046154 10.94,18.5046154 C6.75474794,18.5046154 3.37538462,15.1252527 3.37538462,10.94 C3.37538462,6.75474794 6.75474794,3.37538462 10.94,3.37538462 Z M10.2523077,6.81384615 L10.2523077,10.2523077 L6.81384615,10.2523077 L6.81384615,11.6276923 L10.2523077,11.6276923 L10.2523077,15.0661538 L11.6276923,15.0661538 L11.6276923,11.6276923 L15.0661538,11.6276923 L15.0661538,10.2523077 L11.6276923,10.2523077 L11.6276923,6.81384615 L10.2523077,6.81384615 Z"/>
</svg>
