<svg xmlns="http://www.w3.org/2000/svg" width="22" height="22" viewBox="0 0 22 22">
  <path d="M6.4375,3 L6.4375,7.8125 L5.0625,7.8125 C3.93188494,7.8125 3,8.74438494 3,9.875 L3,16.75 L6.4375,16.75 L6.4375,19.5 L16.0625,19.5 L16.0625,16.75 L19.5,16.75 L19.5,9.875 C19.5,8.74438494 18.5681151,7.8125 17.4375,7.8125 L16.0625,7.8125 L16.0625,3 L6.4375,3 Z M7.8125,4.375 L14.6875,4.375 L14.6875,7.8125 L7.8125,7.8125 L7.8125,4.375 Z M5.0625,9.1875 L17.4375,9.1875 C17.8269041,9.1875 18.125,9.48559587 18.125,9.875 L18.125,15.375 L16.0625,15.375 L16.0625,12.625 L6.4375,12.625 L6.4375,15.375 L4.375,15.375 L4.375,9.875 C4.375,9.48559587 4.67309588,9.1875 5.0625,9.1875 Z M5.75,9.875 C5.37133806,9.875 5.0625,10.1838381 5.0625,10.5625 C5.0625,10.9411619 5.37133806,11.25 5.75,11.25 C6.12866194,11.25 6.4375,10.9411619 6.4375,10.5625 C6.4375,10.1838381 6.12866194,9.875 5.75,9.875 Z M7.8125,14 L14.6875,14 L14.6875,18.125 L7.8125,18.125 L7.8125,14 Z"/>
</svg>
