<svg xmlns="http://www.w3.org/2000/svg" width="22" height="22" viewBox="0 0 22 22">
  <path d="M12.8056379,2 C9.0166827,2 5.93127582,5.08540688 5.93127582,8.87436209 C5.93127582,10.5204494 6.508615,12.029587 7.47800729,13.2138032 L2,18.6918104 L2.98818955,19.68 L8.46619684,14.2019927 C9.65041295,15.171385 11.1595506,15.7487242 12.8056379,15.7487242 C16.5945931,15.7487242 19.68,12.6633173 19.68,8.87436209 C19.68,5.08540688 16.5945931,2 12.8056379,2 Z M12.8056379,3.37487242 C15.8507658,3.37487242 18.3051276,5.82923485 18.3051276,8.87436209 C18.3051276,11.91949 15.8507658,14.3738518 12.8056379,14.3738518 C9.76051067,14.3738518 7.30614824,11.91949 7.30614824,8.87436209 C7.30614824,5.82923485 9.76051067,3.37487242 12.8056379,3.37487242 Z M10.0558931,8.18692588 L10.0558931,9.5617983 L15.5553827,9.5617983 L15.5553827,8.18692588 L10.0558931,8.18692588 Z"/>
</svg>
