<svg xmlns="http://www.w3.org/2000/svg" width="22" height="22" viewBox="0 0 22 22">
  <path d="M10.65,3 C7.13409438,3 4.19786966,5.17294382 3,8.24325843 L4.26800899,8.75898876 C5.26990112,6.19133933 7.70002247,4.3752809 10.65,4.3752809 C12.8793303,4.3752809 14.8672989,5.46862921 16.1084899,7.1258427 L13.4005618,7.1258427 L13.4005618,8.5011236 L18.2140449,8.5011236 L18.2140449,3.68764045 L16.838764,3.68764045 L16.838764,5.8152 C15.2796633,4.02646659 13.0228385,2.99986206 10.65,3 L10.65,3 Z M17.031991,13.744382 C16.0300989,16.3120315 13.5999775,18.1280899 10.65,18.1280899 C8.39660225,18.1280899 6.41688539,17.0189258 5.17019326,15.3775281 L7.8994382,15.3775281 L7.8994382,14.0022472 L3.08595506,14.0022472 L3.08595506,18.8157303 L4.46123596,18.8157303 L4.46123596,16.6881708 C5.96579326,18.3935191 8.17105618,19.5033708 10.65,19.5033708 C14.1659056,19.5033708 17.1021303,17.330427 18.3,14.2601124 L17.031991,13.744382 Z"/>
</svg>
