<svg xmlns="http://www.w3.org/2000/svg" width="22" height="22" viewBox="0 0 22 22">
  <path d="M10.2480473,2 L10.0332544,2.19331361 L2.47254438,9.75402367 L2,10.2480473 L2.47254438,10.742071 L8.65857988,16.9281065 L9.15260355,17.4006509 L9.64662722,16.9281065 L17.2073373,9.36739645 L17.4006509,9.15260355 L17.4006509,2 L10.2480473,2 Z M10.8279882,3.37467456 L16.0259763,3.37467456 L16.0259763,8.57266272 L9.15260355,15.4460355 L3.95461538,10.2480473 L10.8279882,3.37467456 Z M18.0879882,4.06201183 L18.0879882,5.43668639 L18.7753254,5.43668639 L18.7753254,11.0427811 L12.2456213,17.5295266 L11.3864497,16.670355 L10.4198817,17.6369231 L11.7515976,18.9901183 L12.2456213,19.4626627 L12.7181657,18.9901183 L19.9566864,11.8375148 L20.15,11.6227219 L20.15,4.06201183 L18.0879882,4.06201183 Z M13.9639645,4.74934911 C13.5853922,4.74934911 13.2766272,5.05811408 13.2766272,5.43668639 C13.2766272,5.8152587 13.5853922,6.12402367 13.9639645,6.12402367 C14.3425368,6.12402367 14.6513018,5.8152587 14.6513018,5.43668639 C14.6513018,5.05811408 14.3425368,4.74934911 13.9639645,4.74934911 Z"/>
</svg>
