<svg xmlns="http://www.w3.org/2000/svg" width="22" height="22" viewBox="0 0 22 22">
  <path d="M10.94,2 C6.01064286,2 2,6.01064286 2,10.94 C2,15.8693571 6.01064286,19.88 10.94,19.88 C15.8693571,19.88 19.88,15.8693571 19.88,10.94 C19.88,6.01064286 15.8693571,2 10.94,2 Z M10.94,3.37538462 C15.1252527,3.37538462 18.5046154,6.75474794 18.5046154,10.94 C18.5046154,15.1252527 15.1252527,18.5046154 10.94,18.5046154 C6.75474794,18.5046154 3.37538462,15.1252527 3.37538462,10.94 C3.37538462,6.75474794 6.75474794,3.37538462 10.94,3.37538462 Z M8.33966346,7.35110577 L7.35110577,8.33966346 L9.95144231,10.94 L7.35110577,13.5403365 L8.33966346,14.5288942 L10.94,11.9285577 L13.5403365,14.5288942 L14.5288942,13.5403365 L11.9285577,10.94 L14.5288942,8.33966346 L13.5403365,7.35110577 L10.94,9.95144231 L8.33966346,7.35110577 Z"/>
</svg>
