<svg xmlns="http://www.w3.org/2000/svg" width="22" height="22" viewBox="0 0 22 22">
  <path d="M9.052,2 C8.65601991,2 8.25117364,2.13888886 7.96453125,2.42553125 C7.67788886,2.71217364 7.539,3.11701991 7.539,3.513 L7.539,4.2695 L3,4.2695 L3,5.7825 L3.7565,5.7825 L3.7565,17.8865 C3.7565,19.1305877 4.7819123,20.156 6.026,20.156 L15.104,20.156 C16.3480877,20.156 17.3735,19.1305877 17.3735,17.8865 L17.3735,5.7825 L18.13,5.7825 L18.13,4.2695 L13.591,4.2695 L13.591,3.513 C13.591,3.11701991 13.4521111,2.71217364 13.1654688,2.42553125 C12.8788264,2.13888886 12.4739808,2 12.078,2 L9.052,2 Z M9.052,3.513 L12.078,3.513 L12.078,4.2695 L9.052,4.2695 L9.052,3.513 Z M5.2695,5.7825 L15.8605,5.7825 L15.8605,17.8865 C15.8605,18.3061215 15.5236215,18.643 15.104,18.643 L6.026,18.643 C5.60637928,18.643 5.2695,18.3061215 5.2695,17.8865 L5.2695,5.7825 Z M6.7825,8.052 L6.7825,16.3735 L8.2955,16.3735 L8.2955,8.052 L6.7825,8.052 Z M9.8085,8.052 L9.8085,16.3735 L11.3215,16.3735 L11.3215,8.052 L9.8085,8.052 Z M12.8345,8.052 L12.8345,16.3735 L14.3475,16.3735 L14.3475,8.052 L12.8345,8.052 Z"/>
</svg>
