<svg xmlns="http://www.w3.org/2000/svg" width="22" height="22" viewBox="0 0 22 22">
  <path d="M9.18954545,3 C8.82986409,3 8.46124227,3.12654182 8.20059364,3.38719045 C7.94063273,3.64646364 7.81409091,4.01508545 7.81409091,4.37545455 L7.81409091,5.06318182 L3,5.06318182 L3,6.43863636 L3.75237364,6.43863636 L5.06318182,18.8823736 L5.12782818,19.5054545 L16.0021718,19.5054545 L16.0668182,18.8823736 L17.3776264,6.43863636 L18.13,6.43863636 L18.13,5.06318182 L13.3159091,5.06318182 L13.3159091,4.37545455 C13.3159091,4.01577318 13.1893673,3.64715136 12.9287186,3.38650273 C12.6694455,3.12654182 12.3001359,3 11.9404545,3 L9.18954545,3 Z M9.18954545,4.37545455 L11.9404545,4.37545455 L11.9404545,5.06318182 L9.18954545,5.06318182 L9.18954545,4.37545455 Z M5.14914773,6.43863636 L15.9808523,6.43863636 L14.75601,18.13 L6.37399,18.13 L5.14914773,6.43863636 Z M7.81409091,8.50181818 L7.81409091,16.0668182 L9.18954545,16.0668182 L9.18954545,8.50181818 L7.81409091,8.50181818 Z M9.87727273,8.50181818 L9.87727273,16.0668182 L11.2527273,16.0668182 L11.2527273,8.50181818 L9.87727273,8.50181818 Z M11.9404545,8.50181818 L11.9404545,16.0668182 L13.3159091,16.0668182 L13.3159091,8.50181818 L11.9404545,8.50181818 Z"/>
</svg>
