<svg xmlns="http://www.w3.org/2000/svg" width="18" height="15" viewBox="0 0 18 15">
  <path fill="#1DA1F2" d="M18,1.91925 C17.3260194,2.2176176 16.6110419,2.41304814 15.879,2.499 C16.6496874,2.03751141 17.2264649,1.31174197 17.502,0.45675 C16.7771764,0.886302651 15.9846548,1.18961651 15.15825,1.35375 C14.1222332,0.246188294 12.5144034,-0.115389471 11.1039633,0.441999276 C9.69352306,0.999388023 8.76723701,2.36241742 8.76825,3.879 C8.76825,4.16925 8.8005,4.4505 8.86575,4.71975 C5.89503566,4.57352955 3.12678756,3.17045237 1.2525,0.861 C0.923232618,1.42462885 0.750527743,2.06599313 0.75225,2.71875 C0.75225,3.999 1.4025,5.13 2.3955,5.79225 C1.80896853,5.77363986 1.23544386,5.61469894 0.723,5.32875 L0.723,5.376 C0.721953195,7.13456261 1.96156879,8.64971808 3.6855,8.997 C3.14179968,9.1461059 2.57109112,9.16817466 2.0175,9.0615 C2.50091795,10.5656874 3.88634886,11.5967758 5.466,11.628 C3.91891892,12.8423186 1.95237696,13.3914284 0,13.15425 C1.68789286,14.2404563 3.65305709,14.8172204 5.66025,14.8155038 C12.45375,14.8155038 16.16925,9.1875 16.16925,4.3065 C16.16925,4.149 16.16325,3.987 16.15725,3.82875 C16.879162,3.30604046 17.5030072,2.65985163 18,1.92 L18,1.91925 Z"/>
</svg>
