<svg xmlns="http://www.w3.org/2000/svg" width="22" height="22" viewBox="0 0 22 22">
  <path d="M8.87821486,2 C6.22634044,2 4.06346446,4.16287598 4.06346446,6.8147504 C4.06346446,8.47250748 4.90980747,9.94487535 6.19141218,10.8127128 C3.73836151,11.8659394 2,14.300183 2,17.1320727 L3.37564297,17.1320727 C3.37564297,14.0852388 5.83138096,11.6295008 8.87821486,11.6295008 C10.3532694,11.6295008 11.6724896,12.2340312 12.661233,13.1770991 L9.41557539,16.4227568 L9.37258655,16.637701 L8.89970928,19.0665706 L8.68476507,20.0768084 L9.69500287,19.8618642 L12.1238725,19.3889869 L12.3388167,19.3459981 L19.2815148,12.4033 C20.0794951,11.6053197 20.0794951,10.2780389 19.2815148,9.48005866 C18.8811814,9.07972523 18.3491941,8.87821486 17.8198942,8.87821486 C17.3013414,8.87821486 16.7774147,9.07435128 16.3797679,9.45856424 L13.6499764,12.1883558 C13.0508192,11.6133803 12.3415033,11.1431897 11.5650175,10.8127128 C12.8466222,9.94487535 13.6929653,8.47250748 13.6929653,6.8147504 C13.6929653,4.16287598 11.5300893,2 8.87821486,2 Z M8.87821486,3.37564297 C10.7858451,3.37564297 12.3173223,4.90712084 12.3173223,6.8147504 C12.3173223,8.72238065 10.7858451,10.2538578 8.87821486,10.2538578 C6.9705853,10.2538578 5.43910743,8.72238065 5.43910743,6.8147504 C5.43910743,4.90712084 6.9705853,3.37564297 8.87821486,3.37564297 Z M17.8198942,10.2538578 C17.9945362,10.2538578 18.1772388,10.3102805 18.3142659,10.4473076 C18.5883201,10.7213618 18.5883201,11.1405031 18.3142659,11.4145566 L11.6509952,18.0778272 L10.4258132,18.3357603 L10.6837463,17.1105783 L17.3470169,10.4473076 C17.484044,10.3102805 17.6452522,10.2538578 17.8198942,10.2538578 Z"/>
</svg>
