<svg xmlns="http://www.w3.org/2000/svg" width="22" height="22" viewBox="0 0 22 22">
  <path d="M10.875,3 C8.22436506,3 6.0625,5.16186506 6.0625,7.8125 C6.0625,9.46948225 6.90844744,10.9411619 8.18945312,11.8085938 C5.737549,12.8613281 4,15.2944339 4,18.125 L5.375,18.125 C5.375,15.0795902 7.82959019,12.625 10.875,12.625 C13.9204105,12.625 16.375,15.0795902 16.375,18.125 L17.75,18.125 C17.75,15.2944339 16.012451,12.8613281 13.5605469,11.8085938 C14.8415526,10.9411619 15.6875,9.46948225 15.6875,7.8125 C15.6875,5.16186506 13.5256349,3 10.875,3 Z M10.875,4.375 C12.7817386,4.375 14.3125,5.90576206 14.3125,7.8125 C14.3125,9.71923862 12.7817386,11.25 10.875,11.25 C8.96826206,11.25 7.4375,9.71923862 7.4375,7.8125 C7.4375,5.90576206 8.96826206,4.375 10.875,4.375 Z"/>
</svg>
