<svg xmlns="http://www.w3.org/2000/svg" width="18" height="18" viewBox="0 0 18 18">
  <defs>
    <filter id="website-a">
      <feColorMatrix in="SourceGraphic" values="0 0 0 0 0.468583 0 0 0 0 0.549103 0 0 0 0 0.635815 0 0 0 1.000000 0"/>
    </filter>
  </defs>
  <g fill="none" fill-rule="evenodd" filter="url(#website-a)" transform="translate(-11 -11)">
    <path fill="#FFF" fill-rule="nonzero" d="M9,0 C4.03753846,0 0,4.03753846 0,9 C0,13.9624615 4.03753846,18 9,18 C13.9624615,18 18,13.9624615 18,9 C18,4.03753846 13.9624615,0 9,0 Z M9,1.38461538 C9.234,1.38461538 9.46384615,1.39846154 9.69230769,1.41923077 L9.69230769,2.76923077 L8.30769231,2.76923077 L7.61538462,4.84615385 L6.92307692,4.84615385 L6.92307692,5.53846154 L10.3846154,5.53846154 L11.0769231,6.23076923 L11.7692308,6.23076923 L11.7692308,6.92307692 L11.0769231,7.61538462 L8.30769231,6.92307692 L5.53846154,9 L5.53846154,11.0769231 L6.92307692,12.4615385 L9,12.4615385 L9,14.1923077 L9.69230769,15.9230769 L10.3846154,15.9230769 L12.4615385,13.1538462 L12.4615385,12.4615385 L13.1538462,11.0769231 L13.1538462,10.3846154 L12.4615385,10.3846154 L11.7692308,9 L12.4615385,8.30769231 L13.5,9 L15.2307692,8.30769231 L15.2307692,7.61538462 L16.4831538,7.61538462 C16.5662308,8.06538462 16.6153846,8.52646154 16.6153846,9 C16.6153846,13.1988462 13.1988462,16.6153846 9,16.6153846 C4.80115385,16.6153846 1.38461538,13.1988462 1.38461538,9 C1.38461538,4.80115385 4.80115385,1.38461538 9,1.38461538 Z" transform="translate(11 11)"/>
  </g>
</svg>
